<svg width="74" height="74" viewBox="0 0 74 74" fill="none" xmlns="http://www.w3.org/2000/svg">
<g clip-path="url(#clip0_0_1531)">
<path d="M47.7894 10.3128C48.3873 10.3128 48.8719 9.82811 48.8719 9.23024C48.8719 8.63237 48.3873 8.14771 47.7894 8.14771C47.1915 8.14771 46.7068 8.63237 46.7068 9.23024C46.7068 9.82811 47.1915 10.3128 47.7894 10.3128Z" fill="#2B2B2B"/>
<path d="M52.4415 10.3128C53.0394 10.3128 53.5241 9.82811 53.5241 9.23024C53.5241 8.63237 53.0394 8.14771 52.4415 8.14771C51.8437 8.14771 51.359 8.63237 51.359 9.23024C51.359 9.82811 51.8437 10.3128 52.4415 10.3128Z" fill="#2B2B2B"/>
<path d="M20.4759 10.3142H39.9569C40.5556 10.3142 41.0409 9.82887 41.0409 9.23022C41.0409 8.63158 40.5556 8.14624 39.9569 8.14624H20.4759C19.8772 8.14624 19.3919 8.63158 19.3919 9.23022C19.3919 9.82887 19.8772 10.3142 20.4759 10.3142Z" fill="#2B2B2B"/>
<path d="M71.1202 59.3693H69.2178V52.2682C69.2178 51.6696 68.7324 51.1842 68.1338 51.1842C67.5351 51.1842 67.0498 51.6696 67.0498 52.2682V59.3693C62.404 59.3693 9.81729 59.3693 6.95036 59.3693V22.7625C6.95036 21.2882 8.14968 20.0888 9.62405 20.0888H14.7685V23.009H11.9462C10.8017 23.009 9.87062 23.9402 9.87062 25.0848V54.3733C9.87062 55.5179 10.8017 56.4491 11.9462 56.4491H62.0536C63.1982 56.4491 64.1292 55.5179 64.1292 54.3733V25.0848C64.1292 23.9402 63.1982 23.009 62.0536 23.009H59.2315V20.0888H64.376C65.8502 20.0888 67.0496 21.2881 67.0496 22.7625V47.1975C67.0496 47.7961 67.535 48.2815 68.1336 48.2815C68.7323 48.2815 69.2176 47.7961 69.2176 47.1975V22.7625C69.2176 20.0928 67.0457 17.9208 64.376 17.9208H59.2315V5.9912C59.2315 4.76558 58.2344 3.76831 57.0086 3.76831H16.9914C15.7656 3.76831 14.7685 4.76543 14.7685 5.9912V17.9208H9.6239C6.95427 17.9208 4.78225 20.0927 4.78225 22.7625V59.3695H2.87979C1.29182 59.3693 0 60.6613 0 62.2493C0 66.6507 3.58091 70.2316 7.98232 70.2316H66.0177C70.4191 70.2316 74 66.6507 74 62.2493C74 60.6612 72.7082 59.3693 71.1202 59.3693ZM12.0386 25.177H14.7683V54.2811H12.0386V25.177ZM61.9614 25.177V54.2811H59.2317V25.177H61.9614ZM16.9914 5.93642H57.0088C57.039 5.93642 57.0637 5.96099 57.0637 5.99135V12.5242H25.4164C24.8178 12.5242 24.3324 13.0095 24.3324 13.6081C24.3324 14.2068 24.8178 14.6921 25.4164 14.6921H57.0637V54.2813H16.9363V14.692H20.3487C20.9473 14.692 21.4327 14.2066 21.4327 13.608C21.4327 13.0093 20.9473 12.524 20.3487 12.524H16.9363V5.9912C16.9363 5.96099 16.961 5.93642 16.9914 5.93642ZM26.5504 61.5373H47.4496V62.6268C47.4496 63.2276 46.9608 63.7164 46.36 63.7164H27.64C27.0392 63.7164 26.5504 63.2276 26.5504 62.6268V61.5373ZM66.0177 68.0635H7.98232C4.77632 68.0635 2.16797 65.4551 2.16797 62.2491C2.16797 61.8567 2.48724 61.5373 2.87979 61.5373H24.3824V62.6268C24.3824 64.423 25.8438 65.8844 27.64 65.8844H46.36C48.1562 65.8844 49.6176 64.423 49.6176 62.6268V61.5373H71.1202C71.5128 61.5373 71.832 61.8566 71.832 62.2491C71.832 65.4553 69.2237 68.0635 66.0177 68.0635Z" fill="#2B2B2B"/>
<path d="M22.5482 34.811L21.7623 35.0135C20.0179 35.4628 18.9696 37.2384 19.4191 38.9831L19.9618 41.0898C20.3402 42.5587 21.6674 43.5366 23.1188 43.5365C23.7424 43.5365 24.0906 43.373 24.8462 43.1974C25.3956 43.8375 26.233 44.1921 27.1009 44.1088L30.9021 49.8705C31.2972 50.4696 31.9621 50.8152 32.6571 50.8152C33.0878 50.8152 33.2741 50.7077 34.4117 50.4316C35.5369 50.142 36.213 48.9967 35.9232 47.8714L34.4739 42.2459L36.0206 41.8475C40.1412 40.786 44.4812 41.8019 47.6978 44.5639L47.7113 44.6167C47.9202 45.4275 48.4324 46.1084 49.1535 46.534C49.6426 46.8228 50.188 46.9705 50.7414 46.9705C51.0039 46.9705 51.2681 46.9373 51.5288 46.8701C52.3397 46.6612 53.0205 46.149 53.4462 45.4279C53.8718 44.7069 53.9912 43.8632 53.7822 43.0526L48.0007 20.6121C47.7918 19.8013 47.2796 19.1204 46.5586 18.6947C45.8376 18.2692 44.994 18.1498 44.183 18.3587C43.3722 18.5675 42.6913 19.0798 42.2657 19.8008C41.84 20.5219 41.7207 21.3655 41.9297 22.1762L41.9432 22.2289C40.4618 26.2014 37.153 29.1881 33.0326 30.2497L24.5214 32.4425C23.3957 32.7326 22.6281 33.7109 22.5482 34.811ZM23.3908 41.3337C22.8082 41.4838 22.2115 41.1319 22.0612 40.549L21.5185 38.4423C21.3679 37.858 21.719 37.2635 22.3033 37.1129L22.9543 36.9451L24.0417 41.166L23.3908 41.3337ZM33.8074 48.3486L32.686 48.6375L29.3416 43.5683L32.3744 42.7869L33.8074 48.3486ZM44.1326 20.9027C44.2638 20.6804 44.4738 20.5225 44.7239 20.458C44.8045 20.4372 44.8853 20.4274 44.965 20.4274C45.3954 20.4274 45.7889 20.7174 45.9012 21.1529L51.6828 43.5934C51.8157 44.1095 51.504 44.6376 50.9879 44.7706C50.4719 44.9036 49.9436 44.592 49.8107 44.0757L44.029 21.6352C43.9647 21.3852 44.0014 21.1252 44.1326 20.9027ZM42.7794 25.474L46.8616 41.3186C41.0175 37.9132 35.4519 39.7811 35.323 39.7883L33.4168 32.3893C33.5338 32.333 39.3021 31.2899 42.7794 25.474ZM25.0623 34.542L31.3173 32.9305L33.2235 40.3295C31.3201 40.8199 28.2819 41.6026 26.9686 41.941C26.5142 42.0576 26.3995 41.5974 26.3879 41.583L24.7222 35.1181C24.6572 34.8655 24.8098 34.607 25.0623 34.542Z" fill="#2B2B2B"/>
</g>
<defs>
<clipPath id="clip0_0_1531">
<rect width="74" height="74" fill="white"/>
</clipPath>
</defs>
</svg>
