<svg width="14" height="14" viewBox="0 0 14 14" fill="none" xmlns="http://www.w3.org/2000/svg">
<g clip-path="url(#clip0_0_1463)">
<path d="M11.6603 6.75041C11.6124 5.8322 11.2931 4.94885 10.7427 4.21233C10.575 4.39295 10.3957 4.56247 10.206 4.71983C9.62323 5.20391 8.97197 5.59903 8.27344 5.89233C8.37085 6.0965 8.4601 6.29425 8.53885 6.48092V6.48267C8.56107 6.53482 8.58247 6.58733 8.60302 6.64017C9.48619 6.541 10.4172 6.57717 11.3196 6.69908C11.4398 6.71542 11.5529 6.73291 11.6603 6.75041ZM6.18569 2.40458C6.75417 3.2056 7.27839 4.03712 7.75602 4.89542C8.46944 4.61425 9.05919 4.25958 9.53402 3.86466C9.69884 3.72883 9.854 3.58166 9.99835 3.42425C9.15893 2.71825 8.09687 2.33186 7.00002 2.33341C6.72704 2.33323 6.45456 2.35685 6.18569 2.404V2.40458ZM2.48094 5.83167C2.87832 5.82164 3.27523 5.79771 3.67094 5.75991C4.62739 5.67437 5.57568 5.51404 6.5071 5.28042C6.02032 4.4347 5.49476 3.61191 4.9321 2.81466C4.33111 3.1124 3.80117 3.5359 3.37825 4.05646C2.95532 4.57701 2.6493 5.18244 2.48094 5.83167ZM3.37344 9.93717C3.59977 9.60641 3.89727 9.23425 4.29219 8.82941C5.14035 7.96025 6.14135 7.28358 7.29985 6.91025L7.33602 6.89975C7.23977 6.68742 7.14935 6.49783 7.05835 6.31933C5.98735 6.63142 4.85919 6.82625 3.7351 6.92717C3.18677 6.97675 2.69502 6.99833 2.33335 7.00183C2.33232 8.07084 2.69986 9.10753 3.37402 9.93717H3.37344ZM8.75294 11.3255C8.52799 10.1911 8.20957 9.07718 7.80094 7.99525C6.6331 8.41933 5.70269 9.03942 4.98344 9.77908C4.69317 10.0721 4.43558 10.3958 4.21519 10.7445C5.01949 11.3446 5.9965 11.6682 7.00002 11.6667C7.6008 11.6676 8.19606 11.5521 8.75294 11.3267V11.3255ZM9.84552 10.6984C10.7563 9.99828 11.3767 8.98675 11.5879 7.85758C11.3896 7.808 11.1382 7.75842 10.8617 7.71992C10.2469 7.63139 9.62315 7.62492 9.00669 7.70067C9.3538 8.67998 9.63406 9.68173 9.84552 10.699V10.6984ZM7.00002 12.8334C3.77827 12.8334 1.16669 10.2218 1.16669 7.00008C1.16669 3.77833 3.77827 1.16675 7.00002 1.16675C10.2218 1.16675 12.8334 3.77833 12.8334 7.00008C12.8334 10.2218 10.2218 12.8334 7.00002 12.8334Z" fill="#2B2B2B"/>
</g>
<defs>
<clipPath id="clip0_0_1463">
<rect width="14" height="14" fill="white"/>
</clipPath>
</defs>
</svg>
