<svg width="14" height="14" viewBox="0 0 14 14" fill="none" xmlns="http://www.w3.org/2000/svg">
<g clip-path="url(#clip0_0_1466)">
<path d="M12.5668 3.79042C12.8334 4.82992 12.8334 6.99992 12.8334 6.99992C12.8334 6.99992 12.8334 9.16992 12.5668 10.2094C12.4186 10.784 11.9852 11.2361 11.4363 11.3889C10.4394 11.6666 7.00002 11.6666 7.00002 11.6666C7.00002 11.6666 3.56244 11.6666 2.56377 11.3889C2.01252 11.2338 1.57969 10.7823 1.43327 10.2094C1.16669 9.16992 1.16669 6.99992 1.16669 6.99992C1.16669 6.99992 1.16669 4.82992 1.43327 3.79042C1.58144 3.21584 2.01485 2.76375 2.56377 2.61092C3.56244 2.33325 7.00002 2.33325 7.00002 2.33325C7.00002 2.33325 10.4394 2.33325 11.4363 2.61092C11.9875 2.76609 12.4204 3.21759 12.5668 3.79042ZM5.83335 9.04158L9.33335 6.99992L5.83335 4.95825V9.04158Z" fill="#1B1B1B"/>
</g>
<defs>
<clipPath id="clip0_0_1466">
<rect width="14" height="14" fill="white"/>
</clipPath>
</defs>
</svg>
