<svg width="14" height="14" viewBox="0 0 14 14" fill="none" xmlns="http://www.w3.org/2000/svg">
<g clip-path="url(#clip0_0_73)">
<path d="M4.0483 2.91676C4.04814 3.22618 3.92508 3.52287 3.70618 3.74155C3.48728 3.96023 3.19047 4.083 2.88105 4.08285C2.57163 4.08269 2.27495 3.95963 2.05626 3.74072C1.83758 3.52182 1.71481 3.22501 1.71497 2.9156C1.71512 2.60618 1.83819 2.30949 2.05709 2.09081C2.27599 1.87213 2.5728 1.74936 2.88222 1.74951C3.19164 1.74967 3.48832 1.87273 3.707 2.09163C3.92569 2.31053 4.04845 2.60734 4.0483 2.91676ZM4.0833 4.94676H1.74997V12.2501H4.0833V4.94676ZM7.76997 4.94676H5.4483V12.2501H7.74663V8.4176C7.74663 6.2826 10.5291 6.08426 10.5291 8.4176V12.2501H12.8333V7.62426C12.8333 4.0251 8.71497 4.15926 7.74663 5.92676L7.76997 4.94676Z" fill="#2B2B2B"/>
</g>
<defs>
<clipPath id="clip0_0_73">
<rect width="14" height="14" fill="white"/>
</clipPath>
</defs>
</svg>
