<svg width="14" height="14" viewBox="0 0 14 14" fill="none" xmlns="http://www.w3.org/2000/svg">
<g clip-path="url(#clip0_0_1454)">
<path d="M7.00002 1.16675C8.58494 1.16675 8.78269 1.17258 9.40452 1.20175C10.0258 1.23091 10.4487 1.32833 10.8209 1.473C11.2059 1.62116 11.5302 1.82183 11.8545 2.14558C12.1511 2.43719 12.3807 2.78992 12.5271 3.17925C12.6712 3.55083 12.7692 3.97433 12.7984 4.59558C12.8258 5.21741 12.8334 5.41516 12.8334 7.00008C12.8334 8.585 12.8275 8.78275 12.7984 9.40458C12.7692 10.0258 12.6712 10.4487 12.5271 10.8209C12.3811 11.2105 12.1515 11.5633 11.8545 11.8546C11.5628 12.1511 11.2101 12.3806 10.8209 12.5272C10.4493 12.6712 10.0258 12.7692 9.40452 12.7984C8.78269 12.8258 8.58494 12.8334 7.00002 12.8334C5.4151 12.8334 5.21735 12.8276 4.59552 12.7984C3.97427 12.7692 3.55135 12.6712 3.17919 12.5272C2.78971 12.381 2.43691 12.1515 2.14552 11.8546C1.84884 11.563 1.61931 11.2103 1.47294 10.8209C1.32827 10.4493 1.23085 10.0258 1.20169 9.40458C1.17427 8.78275 1.16669 8.585 1.16669 7.00008C1.16669 5.41516 1.17252 5.21741 1.20169 4.59558C1.23085 3.97375 1.32827 3.55141 1.47294 3.17925C1.61891 2.78969 1.84849 2.43685 2.14552 2.14558C2.437 1.8488 2.78977 1.61926 3.17919 1.473C3.55135 1.32833 3.97369 1.23091 4.59552 1.20175C5.21735 1.17433 5.4151 1.16675 7.00002 1.16675ZM7.00002 4.08342C6.22647 4.08342 5.48461 4.39071 4.93763 4.93769C4.39064 5.48467 4.08335 6.22653 4.08335 7.00008C4.08335 7.77363 4.39064 8.5155 4.93763 9.06248C5.48461 9.60946 6.22647 9.91675 7.00002 9.91675C7.77357 9.91675 8.51543 9.60946 9.06242 9.06248C9.6094 8.5155 9.91669 7.77363 9.91669 7.00008C9.91669 6.22653 9.6094 5.48467 9.06242 4.93769C8.51543 4.39071 7.77357 4.08342 7.00002 4.08342ZM10.7917 3.93758C10.7917 3.74419 10.7149 3.55873 10.5781 3.42198C10.4414 3.28524 10.2559 3.20841 10.0625 3.20841C9.86913 3.20841 9.68367 3.28524 9.54692 3.42198C9.41018 3.55873 9.33335 3.74419 9.33335 3.93758C9.33335 4.13097 9.41018 4.31644 9.54692 4.45318C9.68367 4.58993 9.86913 4.66675 10.0625 4.66675C10.2559 4.66675 10.4414 4.58993 10.5781 4.45318C10.7149 4.31644 10.7917 4.13097 10.7917 3.93758ZM7.00002 5.25008C7.46415 5.25008 7.90927 5.43446 8.23746 5.76264C8.56565 6.09083 8.75002 6.53595 8.75002 7.00008C8.75002 7.46421 8.56565 7.90933 8.23746 8.23752C7.90927 8.56571 7.46415 8.75008 7.00002 8.75008C6.53589 8.75008 6.09077 8.56571 5.76258 8.23752C5.43439 7.90933 5.25002 7.46421 5.25002 7.00008C5.25002 6.53595 5.43439 6.09083 5.76258 5.76264C6.09077 5.43446 6.53589 5.25008 7.00002 5.25008Z" fill="#1B1B1B"/>
</g>
<defs>
<clipPath id="clip0_0_1454">
<rect width="14" height="14" fill="white"/>
</clipPath>
</defs>
</svg>
