<svg width="14" height="14" viewBox="0 0 14 14" fill="none" xmlns="http://www.w3.org/2000/svg">
<g clip-path="url(#clip0_0_1457)">
<path d="M12.9279 3.29929C12.4825 3.49628 12.0103 3.62565 11.5267 3.68312C12.0364 3.37829 12.4179 2.89855 12.6 2.33329C12.1217 2.61796 11.5973 2.81746 11.0507 2.92537C10.6836 2.53254 10.1969 2.27202 9.66642 2.1843C9.13594 2.09658 8.59133 2.18658 8.11727 2.4403C7.64321 2.69403 7.26626 3.09727 7.04501 3.58734C6.82377 4.0774 6.77063 4.62683 6.89386 5.15021C5.92384 5.10159 4.97489 4.84951 4.10862 4.41034C3.24234 3.97118 2.47811 3.35474 1.86553 2.60104C1.6487 2.97347 1.53475 3.39684 1.53536 3.82779C1.53536 4.67362 1.96586 5.42087 2.62036 5.85837C2.23304 5.84618 1.85423 5.74158 1.51553 5.55329V5.58362C1.51565 6.14695 1.71058 6.6929 2.06728 7.12891C2.42397 7.56492 2.92048 7.86415 3.47261 7.97587C3.11306 8.07331 2.73604 8.08767 2.37011 8.01787C2.52579 8.50276 2.8292 8.92682 3.23788 9.23069C3.64655 9.53455 4.14002 9.703 4.6492 9.71246C4.14314 10.1099 3.56372 10.4037 2.94404 10.5771C2.32437 10.7504 1.67661 10.7999 1.03778 10.7228C2.15294 11.44 3.45109 11.8207 4.77695 11.8195C9.26453 11.8195 11.7186 8.10187 11.7186 4.87779C11.7186 4.77279 11.7157 4.66662 11.711 4.56279C12.1887 4.21756 12.601 3.78989 12.9284 3.29987L12.9279 3.29929Z" fill="#1B1B1B"/>
</g>
<defs>
<clipPath id="clip0_0_1457">
<rect width="14" height="14" fill="white"/>
</clipPath>
</defs>
</svg>
