<svg width="74" height="74" viewBox="0 0 74 74" fill="none" xmlns="http://www.w3.org/2000/svg">
<g clip-path="url(#clip0_0_1543)">
<path d="M37 0C29.0177 0 22.5218 6.7533 22.5218 15.0526V37C22.5218 45.3009 29.0177 52.0526 37 52.0526C44.9824 52.0526 51.4783 45.3009 51.4783 37V15.0526C51.4783 6.7533 44.9824 0 37 0ZM37 48.8352C31.3117 48.8352 26.6062 44.3743 25.855 38.6087H48.1434C47.3938 44.3759 42.6884 48.8352 37 48.8352ZM48.2609 35.3913H25.7391V15.0526C25.7391 8.52609 30.7905 3.21739 37 3.21739C43.2096 3.21739 48.2609 8.52609 48.2609 15.0526V35.3913Z" fill="#2B2B2B"/>
<path d="M59.5217 28.9565C58.6337 28.9565 57.913 29.6772 57.913 30.5652V37C57.913 48.5312 48.5311 57.9131 37 57.9131C25.4689 57.9131 16.087 48.5312 16.087 37V30.5652C16.087 29.6772 15.3663 28.9565 14.4783 28.9565C13.5903 28.9565 12.8696 29.6772 12.8696 30.5652V37C12.8696 49.7618 22.8354 60.2151 35.3913 61.0484V70.7826H27.3478C26.4598 70.7826 25.7391 71.5033 25.7391 72.3913C25.7391 73.2793 26.4598 74 27.3478 74H46.6522C47.5402 74 48.2609 73.2793 48.2609 72.3913C48.2609 71.5033 47.5402 70.7826 46.6522 70.7826H38.6087V61.0484C51.1646 60.2151 61.1304 49.7618 61.1304 37V30.5652C61.1304 29.6772 60.4097 28.9565 59.5217 28.9565Z" fill="#2B2B2B"/>
</g>
<defs>
<clipPath id="clip0_0_1543">
<rect width="74" height="74" fill="white"/>
</clipPath>
</defs>
</svg>
