<svg width="78" height="78" viewBox="0 0 78 78" fill="none" xmlns="http://www.w3.org/2000/svg">
<path d="M55.3549 72.9677H74.7127L69.7433 58.0584C68.4438 54.1597 65.1275 51.2686 61.0878 50.5113L47.8065 48.0203V44.9469C50.9881 42.6509 53.2338 39.1535 53.8854 35.1201C56.8545 34.6182 59.129 32.0454 59.129 28.9355V20.129C59.129 9.03039 50.0987 0 39 0C27.9014 0 18.871 9.03039 18.871 20.129V28.9355C18.871 32.0416 21.1342 34.6295 24.0982 35.1365C24.7524 39.1698 27.0107 42.671 30.1936 44.9657V48.0216L16.9109 50.5126C12.8725 51.2699 9.555 54.1609 8.25542 58.0597L3.28732 72.9677H22.6452V70.4516H19.2245L21.3494 61.9496L18.9087 61.3407L16.6304 70.4516H6.77719L10.6432 58.8548C11.6535 55.8228 14.2337 53.5734 17.3751 52.9834L25.389 51.4813L27.4384 60.7004C26.0998 61.2816 25.1613 62.6126 25.1613 64.1613V74.2258C25.1613 76.3066 26.8547 78 28.9355 78H49.0645C51.1454 78 52.8387 76.3066 52.8387 74.2258V64.1613C52.8387 62.6126 51.9002 61.2816 50.5629 60.7004L52.6123 51.4813L60.6261 52.9834C63.7675 53.5734 66.3466 55.8228 67.358 58.8548L71.2228 70.4516H61.3697L59.0913 61.3407L56.6507 61.9496L58.7755 70.4516H55.3549V72.9677ZM50.1377 51.017L48.4003 58.8346L47.5309 55.3548H42.037L46.9686 50.4232L50.1377 51.017ZM46.1949 60.3871H31.8051L32.4342 57.871H45.5658L46.1949 60.3871ZM39 54.834L32.7097 48.5437V46.4226C34.627 47.3057 36.7544 47.8064 39 47.8064C41.2469 47.8064 43.373 47.2995 45.2903 46.4163V48.5437L39 54.834ZM54.0968 32.4782V25.394C55.5574 25.9149 56.6129 27.2987 56.6129 28.9367C56.6129 30.5747 55.5574 31.9574 54.0968 32.4782ZM23.9032 32.4945C22.4388 31.975 21.3871 30.576 21.3871 28.9355C21.3871 27.295 22.4388 25.896 23.9032 25.3764V32.4945ZM21.3871 23.9359V20.129C21.3871 10.4168 29.2877 2.51613 39 2.51613C48.7123 2.51613 56.6129 10.4168 56.6129 20.129V23.9359C55.8681 23.3723 55.0076 22.9559 54.0565 22.7685C53.859 21.2827 52.5984 20.129 51.0598 20.129C50.2609 20.129 49.4784 20.4536 48.8494 21.0826C46.7245 23.2075 44.0323 24.5625 41.1161 25.0028L41.1966 24.8417C41.4054 24.4215 41.5161 23.9523 41.5161 23.483V23.166C41.5161 21.4915 40.1537 20.129 38.4792 20.129C37.6803 20.129 36.8978 20.4536 36.3316 21.0185C33.6809 23.668 30.1646 25.1374 26.4194 25.1613V22.6452H25.1613C23.7397 22.6452 22.4414 23.1371 21.3871 23.9359ZM26.4194 32.7097V27.6774C30.8364 27.6535 34.9855 25.9224 38.1093 22.7986C38.4125 22.4942 39 22.742 39 23.166V23.483C39 23.5635 38.9811 23.6441 38.9446 23.717L36.9645 27.6774H39C43.3932 27.6774 47.5221 25.9677 50.6899 22.7986C50.9944 22.4942 51.5807 22.742 51.5807 23.166V32.7097C51.5807 39.6466 45.937 45.2903 39 45.2903C32.063 45.2903 26.4194 39.6466 26.4194 32.7097ZM31.0314 50.4232L35.963 55.3548H30.4691L29.5997 58.8346L27.8624 51.017L31.0314 50.4232ZM28.9355 75.4839C28.2423 75.4839 27.6774 74.9203 27.6774 74.2258V64.1613C27.6774 63.4668 28.2423 62.9032 28.9355 62.9032H32.8493C31.2126 64.5035 30.1936 66.7303 30.1936 69.1936C30.1936 71.6568 31.2126 73.8836 32.8493 75.4839H28.9355ZM39 75.4839C35.5315 75.4839 32.7097 72.662 32.7097 69.1936C32.7097 65.7251 35.5315 62.9032 39 62.9032C42.4685 62.9032 45.2903 65.7251 45.2903 69.1936C45.2903 72.662 42.4685 75.4839 39 75.4839ZM50.3226 74.2258C50.3226 74.9203 49.7577 75.4839 49.0645 75.4839H45.1507C46.7874 73.8836 47.8065 71.6568 47.8065 69.1936C47.8065 66.7303 46.7874 64.5035 45.1507 62.9032H49.0645C49.7577 62.9032 50.3226 63.4668 50.3226 64.1613V74.2258Z" fill="#2B2B2B"/>
<path d="M39 65.4194C36.9192 65.4194 35.2258 67.1128 35.2258 69.1936C35.2258 71.2745 36.9192 72.9678 39 72.9678C41.0808 72.9678 42.7742 71.2745 42.7742 69.1936C42.7742 67.1128 41.0808 65.4194 39 65.4194ZM39 70.4517C38.3068 70.4517 37.7419 69.8881 37.7419 69.1936C37.7419 68.4992 38.3068 67.9356 39 67.9356C39.6932 67.9356 40.2581 68.4992 40.2581 69.1936C40.2581 69.8881 39.6932 70.4517 39 70.4517Z" fill="#2B2B2B"/>
</svg>
